<svg width="978" height="1128" viewBox="0 0 978 1128" fill="none" xmlns="http://www.w3.org/2000/svg">
<path fill-rule="evenodd" clip-rule="evenodd" d="M823.908 256.786C829.042 249.403 833.951 242.153 838.625 235.049C844.615 225.945 850.303 216.958 855.64 208.126C846.756 191.775 836.647 175.912 825.314 160.672C817.35 175.194 807.862 190.83 796.974 207.386C807.374 223.254 816.353 239.78 823.908 256.786ZM810.292 275.951C803.324 258.582 794.819 241.685 784.778 225.47C735.346 297.049 662.437 383.406 575.191 470.651C385.885 659.958 200.763 781.763 161.711 742.711C148.503 729.503 153.694 699.59 173.672 658.457C161.854 643.45 151.205 627.824 141.723 611.7C129.761 633.166 120.22 653.463 113.847 671.972C108.455 687.632 104.356 704.748 104.424 721.698C104.494 738.856 109.02 760.731 126.355 778.066C143.69 795.401 165.565 799.928 182.723 799.997C199.673 800.066 216.789 795.966 232.449 790.574C263.991 779.713 300.728 759.654 339.589 734.085C418.012 682.485 514.24 602.314 610.547 506.007C690.692 425.861 759.662 345.771 810.292 275.951ZM153.356 591.696C162.3 607.954 172.46 623.722 183.836 638.866C191.794 624.379 201.266 608.787 212.127 592.283C201.667 576.523 192.618 560.102 184.981 543.199C179.873 550.546 174.989 557.762 170.336 564.833C164.359 573.916 158.684 582.884 153.356 591.696ZM198.541 524.107C249.183 454.245 318.202 374.087 398.415 293.875C478.846 213.443 559.223 144.266 629.218 93.5872C646.478 100.655 663.26 109.247 679.359 119.362C607.7 168.799 521.181 241.819 433.77 329.23C346.589 416.41 273.725 502.703 224.294 574.251C214.186 558.15 205.602 541.367 198.541 524.107ZM697.402 107.206C713.928 96.3505 729.533 86.8916 744.026 78.9561C728.882 67.5687 713.113 57.3977 696.854 48.443C687.843 53.8785 678.669 59.6797 669.372 65.7963C662.489 70.3257 655.468 75.0753 648.321 80.0365C665.224 87.681 681.643 96.7377 697.402 107.206ZM716.878 36.828C733.006 46.3225 748.635 56.986 763.644 68.8187C804.443 49.1002 834.113 44.0327 847.251 57.1707C860.415 70.3346 855.301 100.096 835.486 141.019C847.269 156.121 857.876 171.842 867.306 188.06C879.236 166.639 888.753 146.383 895.114 127.91C900.506 112.249 904.606 95.1335 904.537 78.183C904.468 61.0249 899.941 39.1505 882.606 21.8153C865.271 4.4802 843.396 -0.0463362 826.238 -0.115713C809.288 -0.184287 792.172 3.91522 776.512 9.30758C758.187 15.6174 738.108 25.0319 716.878 36.828Z" fill="url(#paint0_linear_219_91)"/>
<path fill-rule="evenodd" clip-rule="evenodd" d="M256.513 151.513C393.196 14.8291 614.804 14.8291 751.487 151.513C888.171 288.196 888.171 509.804 751.487 646.487C652.118 745.856 507.864 772.984 383.988 727.87C372.562 736.016 361.412 743.667 350.582 750.793C345.107 754.395 339.654 757.903 334.231 761.306C334.123 761.255 334.015 761.205 333.908 761.154C482.166 830.776 664.346 804.339 786.843 681.843C943.052 525.633 943.052 272.367 786.843 116.157C630.633 -40.0524 377.367 -40.0524 221.157 116.157C64.9476 272.367 64.9476 525.633 221.157 681.843C230.032 690.717 239.219 699.087 248.684 706.953C262.708 699.568 278.157 690.461 294.848 679.691C281.478 669.702 268.66 658.635 256.513 646.487C119.829 509.804 119.829 288.196 256.513 151.513Z" fill="url(#paint1_linear_219_91)"/>
<path d="M26.367 1022.9L20.479 997.814L97.023 905.398H132.863L26.367 1022.9ZM-0.000976562 1076.15V905.398H28.415V1076.15H-0.000976562ZM58.623 975.798L138.239 1076.15H101.375L36.863 994.23L58.623 975.798Z" fill="white"/>
<path d="M157.087 1125.81C153.844 1125.81 150.772 1125.47 147.871 1124.79C144.97 1124.28 142.41 1123.6 140.191 1122.74V1099.7C142.239 1100.38 144.287 1100.98 146.335 1101.49C148.383 1102.01 150.602 1102.26 152.991 1102.26C158.111 1102.26 162.378 1100.9 165.791 1098.17C169.204 1095.44 172.106 1091.51 174.495 1086.39C176.884 1081.27 178.847 1075.13 180.383 1067.96L180.895 1081.27L126.111 947.638H156.575L193.695 1049.01H189.855L226.463 947.638H254.367L201.375 1084.09C197.108 1095.01 192.5 1103.46 187.551 1109.43C182.602 1115.57 177.482 1119.84 172.191 1122.23C167.071 1124.62 162.036 1125.81 157.087 1125.81Z" fill="white"/>
<path d="M327.193 1079.73C323.95 1079.73 319.94 1079.31 315.161 1078.45C310.382 1077.77 305.604 1076.66 300.825 1075.13C296.046 1073.42 291.865 1071.2 288.281 1068.47L295.193 1059.77V1127.61H268.569V972.47C268.569 967.179 270.19 962.742 273.433 959.158C276.846 955.574 281.284 952.758 286.745 950.71C292.206 948.491 298.18 946.955 304.665 946.102C311.321 945.078 317.892 944.566 324.377 944.566C335.812 944.566 346.222 946.699 355.609 950.966C364.996 955.233 372.505 962.486 378.137 972.726C383.769 982.795 386.585 996.619 386.585 1014.2C386.585 1027.51 384.281 1039.12 379.673 1049.01C375.065 1058.74 368.324 1066.34 359.449 1071.8C350.574 1077.09 339.822 1079.73 327.193 1079.73ZM322.329 1057.21C330.521 1057.21 337.348 1055.5 342.809 1052.09C348.27 1048.67 352.366 1043.72 355.097 1037.24C357.828 1030.75 359.193 1022.9 359.193 1013.69C359.193 1005.15 358.169 997.387 356.121 990.39C354.244 983.393 350.745 977.931 345.625 974.006C340.505 969.91 333.166 967.862 323.609 967.862C315.076 967.862 308.164 968.801 302.873 970.678C297.753 972.385 295.193 974.945 295.193 978.358V1049.78C299.63 1052.17 304.153 1054.05 308.761 1055.41C313.369 1056.61 317.892 1057.21 322.329 1057.21Z" fill="white"/>
<path d="M460.065 1079.99C447.436 1079.99 436.428 1077.43 427.041 1072.31C417.825 1067.19 410.657 1059.6 405.537 1049.53C400.588 1039.46 398.113 1027.17 398.113 1012.66C398.113 990.305 403.318 973.409 413.729 961.974C424.31 950.369 438.988 944.566 457.761 944.566C471.585 944.566 482.764 947.638 491.297 953.782C499.83 959.926 505.974 968.545 509.729 979.638C513.654 990.561 515.532 1003.36 515.361 1018.04H414.241L413.473 998.07H494.881L488.481 1004.47C487.969 991.329 485.238 981.771 480.289 975.798C475.34 969.654 467.574 966.582 456.993 966.582C450.166 966.582 444.364 968.033 439.585 970.934C434.806 973.665 431.137 978.443 428.577 985.27C426.188 991.926 424.993 1001.14 424.993 1012.92C424.993 1027.25 428.321 1038.18 434.977 1045.69C441.633 1053.02 451.446 1056.69 464.417 1056.69C470.22 1056.69 475.596 1056.18 480.545 1055.16C485.665 1054.13 490.358 1052.85 494.625 1051.32C498.892 1049.61 502.561 1047.99 505.633 1046.45V1071.29C499.66 1073.85 492.918 1075.89 485.409 1077.43C477.9 1079.14 469.452 1079.99 460.065 1079.99Z" fill="white"/>
<path d="M533.469 1076.15V959.414C535.688 958.049 539.784 956.171 545.757 953.782C551.73 951.393 558.813 949.345 567.005 947.638C575.197 945.761 583.474 944.822 591.837 944.822C596.104 944.822 599.602 945.163 602.333 945.846C605.064 946.529 607.368 947.297 609.245 948.15V969.654C605.32 969.142 601.224 968.801 596.957 968.63C592.69 968.289 588.424 968.289 584.157 968.63C579.89 968.801 575.709 969.142 571.613 969.654C567.517 970.166 563.762 970.678 560.349 971.19V1076.15H533.469Z" fill="white"/>
<path d="M649.543 1076.15H622.919V898.998H649.543V1076.15Z" fill="white"/>
<path d="M675.387 1076.15V948.406H702.267L702.523 1076.15H675.387ZM674.619 927.158V902.838H703.291V927.158H674.619Z" fill="white"/>
<path d="M728.319 958.134C732.074 956.257 736.255 954.55 740.863 953.014C745.642 951.307 750.676 949.857 755.967 948.662C761.258 947.467 766.634 946.529 772.095 945.846C777.556 945.163 782.847 944.822 787.967 944.822C800.084 944.822 809.983 946.529 817.663 949.942C825.343 953.185 831.06 958.305 834.815 965.302C838.57 972.129 840.447 980.747 840.447 991.158V1076.15H813.567V994.742C813.567 991.499 813.14 988.342 812.287 985.27C811.604 982.027 810.154 979.126 807.935 976.566C805.887 973.835 802.815 971.702 798.719 970.166C794.794 968.63 789.588 967.862 783.103 967.862C778.495 967.862 773.716 968.289 768.767 969.142C763.988 969.995 759.466 971.19 755.199 972.726V1076.15H728.319V958.134Z" fill="white"/>
<path d="M886.511 1001.65L938.991 947.638H972.015L898.031 1018.04L886.511 1001.65ZM892.143 1076.15H865.519V898.998H892.399L892.143 1076.15ZM904.175 992.95L978.415 1076.15H943.855L885.231 1010.87L904.175 992.95Z" fill="white"/>
<circle cx="689" cy="915" r="21" fill="#00FF77"/>
<defs>
<linearGradient id="paint0_linear_219_91" x1="504.481" y1="-0.116562" x2="504.481" y2="799.998" gradientUnits="userSpaceOnUse">
<stop stop-color="#5500FF"/>
<stop offset="0.520833" stop-color="#FF8181"/>
<stop offset="1" stop-color="#DADA00"/>
</linearGradient>
<linearGradient id="paint1_linear_219_91" x1="221.157" y1="681.843" x2="786.843" y2="116.157" gradientUnits="userSpaceOnUse">
<stop stop-color="#060066"/>
<stop offset="0.499132" stop-color="#5500FF"/>
<stop offset="1" stop-color="#00FF77"/>
</linearGradient>
</defs>
</svg>
