<?xml version="1.0" encoding="utf-8"?>
<svg id="logo" width="385px" height="80px" viewBox="0 0 385 80" version="1.1" xmlns:xlink="http://www.w3.org/1999/xlink" xmlns="http://www.w3.org/2000/svg">
  <defs>
    <filter id="filter_1">
      <feColorMatrix in="SourceGraphic" type="matrix" values="0 0 0 0 1 0 0 0 0 1 0 0 0 0 1 0 0 0 1 0" color-interpolation-filters="sRGB" />
    </filter>
    <path d="M0 0L385 0L385 80L0 80L0 0Z" id="path_1" />
    <clipPath id="mask_1">
      <use xlink:href="#path_1" />
    </clipPath>
  </defs>
  <g id="flutterflow-logo_primary_color" filter="url(#filter_1)">
    <path d="M0 0L385 0L385 80L0 80L0 0Z" id="Background" fill="#FFFFFF" fill-opacity="0" fill-rule="evenodd" stroke="none" />
    <g id="logo_primary_color" transform="translate(3 4)">
      <g id="logo">
        <path d="M60.6347 0C62.6766 0 64.5668 1.10496 65.5244 2.90118C66.4419 4.6217 66.403 6.64918 65.4227 8.33205L65.3893 8.38864L56.7972 22.7617C55.8256 24.387 54.0715 25.4014 52.1968 25.423L52.1356 25.4234L42.3241 25.4233L46.4021 34.7593L46.4183 34.7867L46.4434 34.8308C47.4038 36.5666 47.3804 38.6304 46.3844 40.3403L46.3509 40.3972L37.7588 54.7702C36.7872 56.3955 35.0332 57.4099 33.1585 57.4315L33.0973 57.4319L21.0549 57.4318L12.3978 66.5627L12.3814 66.5797C11.5668 67.4078 10.4661 67.8698 9.31846 67.8698C9.03158 67.8698 8.74452 67.8408 8.46053 67.7829C7.06066 67.4971 5.89759 66.5365 5.33774 65.2117L5.32195 65.1739L0.766133 54.7156L0.742167 54.6755L0.717276 54.6324C0.713141 54.625 0.708936 54.6175 0.704544 54.6095C-0.255836 52.8739 -0.232574 50.8101 0.763263 49.1001L0.796818 49.0432L9.13021 35.1029L2.98975 21.0452L3.10227 20.9879L3.10057 20.9794C2.84075 19.6863 3.0499 18.3378 3.71716 17.1567L3.75401 17.0925L3.78807 17.0347L12.3802 2.66159C13.3519 1.03641 15.106 0.0219808 16.9806 0L17.0418 0L60.6347 0L60.6347 0ZM15.5195 57.3226L6.39039 57.3224L9.0717 63.525L9.07829 63.5415C9.12274 63.6526 9.19463 63.7134 9.30164 63.7354C9.39709 63.7551 9.47432 63.7348 9.54736 63.6682L9.56013 63.6558L15.5195 57.3226L15.5195 57.3226ZM41.6168 35.9985L14.0216 35.9985C13.9912 35.9985 13.9607 35.9995 13.9303 36.0016L13.9219 36.0022L21.4883 53.3099L33.0959 53.3099C33.5731 53.3099 34.0327 53.0544 34.2941 52.6441L34.3148 52.6105L42.9193 38.2287C43.176 37.7997 43.2044 37.3019 43.001 36.854C42.7665 36.3375 42.2221 35.9985 41.6168 35.9985L41.6168 35.9985ZM11.1531 39.5525L4.32399 51.0629C4.05225 51.5211 4.0365 52.0576 4.27984 52.5298L4.30565 52.5778L4.3194 52.6013L4.34697 52.6464L4.40158 52.7276L4.46255 52.8069L4.52088 52.8735L4.531 52.8843L4.57045 52.9243L4.60472 52.9569C4.81954 53.1519 5.08509 53.2709 5.37798 53.3015L5.44378 53.3071L5.48188 53.3091L5.53015 53.3099L17.1171 53.3099L11.1531 39.5525L11.1531 39.5525ZM9.35736 25.4512L12.3566 32.3299L12.4151 32.3099C12.933 32.1366 13.4746 32.0427 14.022 32.0341L14.1042 32.0335L40.8529 32.0334L37.9829 25.4513L9.35736 25.4512L9.35736 25.4512ZM60.5585 4.01257L32.8649 4.01257L40.4335 21.3239L52.037 21.3239C52.515 21.3239 52.975 21.0683 53.2365 20.6578L53.2573 20.6242L61.8623 6.24261C62.1189 5.81371 62.1473 5.31633 61.9441 4.8688C61.7144 4.36289 61.1876 4.02709 60.5971 4.01303L60.5585 4.01257L60.5585 4.01257ZM28.6254 4.01257L17.0861 4.01257C16.6116 4.01257 16.1539 4.26756 15.8936 4.67744L15.8729 4.71101L7.29049 19.0929C7.03426 19.5222 7.00595 20.0207 7.20912 20.4692C7.43797 20.9746 7.96188 21.3095 8.54887 21.3235L8.58723 21.3239L36.1742 21.3239L28.6254 4.01257L28.6254 4.01257Z" id="UI-Element-logoMark" fill="#4B39EF" fill-rule="evenodd" stroke="none" />
        <path d="M106.368 21.5585L106.401 12.7456L82.1926 12.7456L82.1926 52.804L91.3064 52.804L91.3064 38.0968L103.235 38.0968L103.268 29.284L91.3064 29.284L91.3064 21.5585L106.368 21.5585L106.368 21.5585ZM111.528 52.804L120.072 52.804L120.072 11.0288L111.528 11.0288L111.528 52.804L111.528 52.804ZM144.736 24.1909L144.736 39.8136C144.736 43.8767 142.572 45.7079 139.439 45.7079C136.705 45.7079 134.483 44.0484 134.483 40.5003L134.483 24.1909L125.939 24.1909L125.939 41.7593C125.939 49.4849 130.838 53.6052 136.591 53.6052C140.35 53.6052 143.198 52.2317 144.736 50.1144L144.736 52.804L153.28 52.804L153.28 24.1909L144.736 24.1909L144.736 24.1909ZM176.236 32.4314L176.236 24.1909L170.369 24.1909L170.369 16.1792L161.824 18.7544L161.824 24.1909L157.268 24.1909L157.268 32.4314L161.824 32.4314L161.824 42.5605C161.824 50.5722 165.071 53.9485 176.236 52.804L176.236 45.0212C172.476 45.2501 170.369 45.0212 170.369 42.5605L170.369 32.4314L176.236 32.4314L176.236 32.4314ZM198.337 32.4314L198.337 24.1909L192.47 24.1909L192.47 16.1792L183.925 18.7544L183.925 24.1909L179.369 24.1909L179.369 32.4314L183.925 32.4314L183.925 42.5605C183.925 50.5722 187.172 53.9485 198.337 52.804L198.337 45.0212C194.577 45.2501 192.47 45.0212 192.47 42.5605L192.47 32.4314L198.337 32.4314L198.337 32.4314ZM211.381 41.931L231.602 41.931C231.83 40.8437 231.944 39.6992 231.944 38.4974C231.944 29.8563 225.792 23.3897 217.476 23.3897C208.476 23.3897 202.324 29.9707 202.324 38.4974C202.324 47.0241 208.362 53.6052 218.102 53.6052C223.514 53.6052 227.729 51.6022 230.52 47.7109L223.684 43.7622C222.545 45.0212 220.552 45.9368 218.216 45.9368C215.083 45.9368 212.463 44.9068 211.381 41.931L211.381 41.931ZM211.21 35.5217C212.007 32.6031 214.172 31.0008 217.419 31.0008C219.982 31.0008 222.545 32.2025 223.457 35.5217L211.21 35.5217L211.21 35.5217ZM245.33 29.284L245.33 24.1909L236.786 24.1909L236.786 52.804L245.33 52.804L245.33 39.8709C245.33 34.2055 250.342 32.7748 253.874 33.3471L253.874 23.6186C250.285 23.6186 246.469 25.4498 245.33 29.284L245.33 29.284ZM282.321 21.5585L282.355 12.7456L258.146 12.7456L258.146 52.804L267.26 52.804L267.26 38.0968L279.188 38.0968L279.222 29.284L267.26 29.284L267.26 21.5585L282.321 21.5585L282.321 21.5585ZM287.481 52.804L296.025 52.804L296.025 11.0288L287.481 11.0288L287.481 52.804L287.481 52.804ZM315.962 53.6052C324.335 53.6052 331.057 47.0241 331.057 38.4974C331.057 29.9707 324.335 23.3897 315.962 23.3897C307.588 23.3897 300.867 29.9707 300.867 38.4974C300.867 47.0241 307.588 53.6052 315.962 53.6052L315.962 53.6052ZM315.962 45.2501C312.259 45.2501 309.411 42.5605 309.411 38.4974C309.411 34.4344 312.259 31.7447 315.962 31.7447C319.664 31.7447 322.512 34.4344 322.512 38.4974C322.512 42.5605 319.664 45.2501 315.962 45.2501L315.962 45.2501ZM367.227 24.1909L363.126 39.5275L358.683 24.1909L350.708 24.1909L346.265 39.5275L342.164 24.1909L333.05 24.1909L342.164 52.804L350.139 52.804L354.695 37.5246L359.252 52.804L367.227 52.804L376.341 24.1909L367.227 24.1909L367.227 24.1909Z" id="FlutterFlow" fill="#FFFFFF" fill-rule="evenodd" stroke="none" />
      </g>
    </g>
  </g>
</svg>