<svg width="3775" height="800" viewBox="0 0 3775 800" fill="none" xmlns="http://www.w3.org/2000/svg">
<path fill-rule="evenodd" clip-rule="evenodd" d="M719.908 256.786C725.042 249.403 729.951 242.153 734.625 235.049C740.615 225.945 746.303 216.958 751.64 208.126C742.756 191.775 732.647 175.912 721.314 160.672C713.35 175.194 703.862 190.83 692.974 207.386C703.374 223.254 712.353 239.78 719.908 256.786ZM706.292 275.951C699.324 258.582 690.819 241.685 680.778 225.47C631.346 297.049 558.437 383.406 471.191 470.651C281.885 659.958 96.763 781.763 57.7106 742.711C44.5033 729.503 49.6941 699.59 69.6717 658.457C57.8541 643.45 47.2046 627.824 37.7231 611.7C25.7607 633.166 16.2205 653.463 9.84748 671.972C4.45513 687.632 0.355618 704.748 0.424187 721.698C0.493597 738.856 5.02011 760.731 22.3552 778.066C39.6904 795.401 61.5649 799.928 78.7229 799.997C95.6734 800.066 112.789 795.966 128.449 790.574C159.991 779.713 196.728 759.654 235.589 734.085C314.012 682.485 410.24 602.314 506.547 506.007C586.692 425.861 655.662 345.771 706.292 275.951ZM49.356 591.696C58.3003 607.954 68.4603 623.722 79.8359 638.866C87.7943 624.379 97.2665 608.787 108.127 592.283C97.6666 576.523 88.6179 560.102 80.9811 543.199C75.8733 550.546 70.9886 557.762 66.3362 564.833C60.3594 573.916 54.6836 582.884 49.356 591.696ZM94.5413 524.107C145.183 454.245 214.202 374.087 294.415 293.875C374.846 213.443 455.223 144.266 525.218 93.5872C542.478 100.655 559.26 109.247 575.359 119.362C503.7 168.799 417.181 241.819 329.77 329.23C242.589 416.41 169.725 502.703 120.294 574.251C110.186 558.15 101.602 541.367 94.5413 524.107ZM593.402 107.206C609.928 96.3505 625.533 86.8916 640.026 78.9561C624.882 67.5687 609.113 57.3977 592.854 48.443C583.843 53.8785 574.669 59.6797 565.372 65.7963C558.489 70.3257 551.468 75.0753 544.321 80.0365C561.224 87.681 577.643 96.7377 593.402 107.206ZM612.878 36.828C629.006 46.3225 644.635 56.986 659.644 68.8187C700.443 49.1002 730.113 44.0327 743.251 57.1707C756.415 70.3346 751.301 100.096 731.486 141.019C743.269 156.121 753.876 171.842 763.306 188.06C775.236 166.639 784.753 146.383 791.114 127.91C796.506 112.249 800.606 95.1335 800.537 78.183C800.468 61.0249 795.941 39.1505 778.606 21.8153C761.271 4.48019 739.396 -0.0463371 722.238 -0.115714C705.288 -0.184287 688.172 3.91522 672.512 9.30758C654.187 15.6174 634.108 25.0319 612.878 36.828Z" fill="url(#paint0_linear_219_359)"/>
<path fill-rule="evenodd" clip-rule="evenodd" d="M152.513 151.513C289.196 14.8291 510.804 14.8291 647.487 151.513C784.171 288.196 784.171 509.804 647.487 646.487C548.118 745.856 403.864 772.984 279.988 727.87C268.562 736.016 257.412 743.667 246.582 750.793C241.107 754.395 235.654 757.903 230.231 761.306C230.123 761.255 230.015 761.205 229.908 761.154C378.166 830.776 560.346 804.339 682.843 681.843C839.052 525.633 839.052 272.367 682.843 116.157C526.633 -40.0524 273.367 -40.0524 117.157 116.157C-39.0524 272.367 -39.0524 525.633 117.157 681.843C126.032 690.717 135.219 699.087 144.684 706.953C158.708 699.568 174.157 690.461 190.848 679.691C177.478 669.702 164.66 658.635 152.513 646.487C15.8291 509.804 15.8291 288.196 152.513 151.513Z" fill="url(#paint1_linear_219_359)"/>
<path d="M1074.79 502.992L1058.09 431.922L1275.22 170.124H1376.88L1074.79 502.992ZM999.997 653.833V170.124H1080.6V653.833H999.997ZM1166.29 369.555L1392.13 653.833H1287.56L1104.57 421.769L1166.29 369.555Z" fill="white"/>
<path d="M1445.6 794.522C1436.4 794.522 1427.69 793.555 1419.46 791.622C1411.23 790.171 1403.96 788.237 1397.67 785.82V720.552C1403.48 722.486 1409.29 724.178 1415.1 725.628C1420.91 727.079 1427.2 727.804 1433.98 727.804C1448.5 727.804 1460.61 723.936 1470.29 716.201C1479.97 708.465 1488.2 697.345 1494.98 682.841C1501.76 668.337 1507.32 650.932 1511.68 630.627L1513.13 668.337L1357.73 289.782H1444.15L1549.44 576.962H1538.55L1642.39 289.782H1721.55L1571.23 676.314C1559.12 707.256 1546.05 731.188 1532.01 748.109C1517.97 765.514 1503.45 777.601 1488.44 784.369C1473.92 791.138 1459.64 794.522 1445.6 794.522Z" fill="white"/>
<path d="M1928.13 663.986C1918.93 663.986 1907.55 662.777 1894 660.36C1880.44 658.426 1866.89 655.284 1853.33 650.932C1839.78 646.098 1827.91 639.813 1817.75 632.077L1837.35 607.42V799.599H1761.83V360.127C1761.83 345.139 1766.43 332.569 1775.63 322.417C1785.31 312.264 1797.9 304.286 1813.39 298.485C1828.88 292.2 1845.83 287.849 1864.22 285.431C1883.1 282.53 1901.74 281.08 1920.14 281.08C1952.57 281.08 1982.11 287.123 2008.73 299.21C2035.36 311.297 2056.66 331.844 2072.64 360.852C2088.61 389.377 2096.6 428.538 2096.6 478.335C2096.6 516.045 2090.06 548.921 2076.99 576.962C2063.92 604.52 2044.8 626.034 2019.63 641.505C1994.45 656.492 1963.95 663.986 1928.13 663.986ZM1914.33 600.168C1937.57 600.168 1956.93 595.334 1972.42 585.664C1987.92 575.995 1999.53 561.975 2007.28 543.603C2015.03 525.231 2018.9 502.992 2018.9 476.884C2018.9 452.711 2015.99 430.713 2010.19 410.891C2004.86 391.069 1994.94 375.598 1980.41 364.478C1965.89 352.875 1945.07 347.073 1917.96 347.073C1893.75 347.073 1874.15 349.732 1859.14 355.051C1844.62 359.885 1837.35 367.137 1837.35 376.807V579.138C1849.94 585.906 1862.77 591.224 1875.84 595.092C1888.91 598.476 1901.74 600.168 1914.33 600.168Z" fill="white"/>
<path d="M2305.04 664.711C2269.21 664.711 2237.99 657.459 2211.36 642.955C2185.22 628.451 2164.88 606.937 2150.36 578.412C2136.32 549.888 2129.3 515.078 2129.3 473.983C2129.3 410.649 2144.07 362.786 2173.6 330.394C2203.61 297.518 2245.25 281.08 2298.5 281.08C2337.71 281.08 2369.42 289.782 2393.63 307.187C2417.84 324.592 2435.26 349.007 2445.91 380.433C2457.05 411.374 2462.37 447.635 2461.89 489.213H2175.05L2172.87 432.647H2403.8L2385.64 450.777C2384.19 413.55 2376.44 386.476 2362.4 369.555C2348.36 352.15 2326.34 343.447 2296.32 343.447C2276.96 343.447 2260.5 347.557 2246.94 355.776C2233.39 363.511 2222.98 377.048 2215.72 396.387C2208.94 415.242 2205.55 441.349 2205.55 474.709C2205.55 515.32 2214.99 546.262 2233.87 567.534C2252.75 588.323 2280.59 598.718 2317.38 598.718C2333.84 598.718 2349.09 597.268 2363.13 594.367C2377.65 591.466 2390.97 587.84 2403.07 583.489C2415.17 578.654 2425.58 574.061 2434.3 569.71V640.054C2417.35 647.306 2398.23 653.108 2376.93 657.459C2355.63 662.294 2331.66 664.711 2305.04 664.711Z" fill="white"/>
<path d="M2513.26 653.833V323.142C2519.55 319.274 2531.17 313.956 2548.11 307.187C2565.06 300.419 2585.15 294.617 2608.39 289.782C2631.62 284.464 2655.1 281.805 2678.83 281.805C2690.93 281.805 2700.85 282.772 2708.6 284.706C2716.34 286.64 2722.88 288.816 2728.21 291.233V352.15C2717.07 350.699 2705.45 349.732 2693.35 349.249C2681.25 348.282 2669.14 348.282 2657.04 349.249C2644.94 349.732 2633.08 350.699 2621.46 352.15C2609.84 353.6 2599.19 355.051 2589.51 356.501V653.833H2513.26Z" fill="white"/>
<path d="M2842.52 653.833H2766.99V151.994H2842.52V653.833Z" fill="white"/>
<path d="M2915.83 653.833V291.958H2992.07L2992.8 653.833H2915.83ZM2913.65 231.766V162.872H2994.98V231.766H2913.65Z" fill="white"/>
<path d="M3065.97 319.516C3076.62 314.198 3088.49 309.363 3101.56 305.012C3115.11 300.177 3129.39 296.068 3144.4 292.683C3159.41 289.299 3174.66 286.64 3190.15 284.706C3205.64 282.772 3220.65 281.805 3235.17 281.805C3269.55 281.805 3297.63 286.64 3319.41 296.309C3341.2 305.495 3357.41 319.999 3368.06 339.821C3378.72 359.16 3384.04 383.575 3384.04 413.067V653.833H3307.79V423.219C3307.79 414.034 3306.58 405.089 3304.16 396.387C3302.22 387.201 3298.11 378.982 3291.82 371.73C3286.01 363.995 3277.29 357.951 3265.67 353.6C3254.54 349.249 3239.77 347.073 3221.38 347.073C3208.31 347.073 3194.75 348.282 3180.71 350.699C3167.16 353.117 3154.33 356.501 3142.22 360.852V653.833H3065.97V319.516Z" fill="white"/>
<path d="M3514.71 442.8L3663.57 289.782H3757.25L3547.39 489.213L3514.71 442.8ZM3530.68 653.833H3455.16V151.994H3531.41L3530.68 653.833ZM3564.81 418.143L3775.41 653.833H3677.37L3511.08 468.907L3564.81 418.143Z" fill="white"/>
<ellipse cx="2954.44" cy="197.325" rx="59.5693" ry="59.4891" fill="#00FF77"/>
<defs>
<linearGradient id="paint0_linear_219_359" x1="400.481" y1="-0.116562" x2="400.481" y2="799.998" gradientUnits="userSpaceOnUse">
<stop stop-color="#5500FF"/>
<stop offset="0.520833" stop-color="#FF8181"/>
<stop offset="1" stop-color="#DADA00"/>
</linearGradient>
<linearGradient id="paint1_linear_219_359" x1="117.157" y1="681.843" x2="682.843" y2="116.157" gradientUnits="userSpaceOnUse">
<stop stop-color="#060066"/>
<stop offset="0.499132" stop-color="#5500FF"/>
<stop offset="1" stop-color="#00FF77"/>
</linearGradient>
</defs>
</svg>
