<svg width="822" height="825" viewBox="0 0 822 825" fill="none" xmlns="http://www.w3.org/2000/svg">
<path fill-rule="evenodd" clip-rule="evenodd" d="M720.909 258.786C726.042 251.403 730.951 244.153 735.625 237.049C741.615 227.945 747.303 218.958 752.641 210.126C743.756 193.775 733.647 177.912 722.314 162.672C714.351 177.194 704.862 192.83 693.974 209.386C704.375 225.254 713.353 241.78 720.909 258.786ZM707.293 277.951C700.324 260.582 691.819 243.685 681.778 227.47C632.346 299.049 559.438 385.406 472.192 472.651C282.885 661.958 97.7635 783.763 58.7111 744.711C45.5038 731.503 50.6945 701.59 70.6722 660.457C58.8546 645.45 48.205 629.824 38.7235 613.7C26.7612 635.166 17.2209 655.463 10.848 673.972C5.45562 689.632 1.35611 706.748 1.42468 723.698C1.49409 740.856 6.02059 762.731 23.3557 780.066C40.6909 797.401 62.5654 801.928 79.7233 801.997C96.6739 802.066 113.79 797.966 129.45 792.574C160.991 781.713 197.728 761.654 236.589 736.085C315.012 684.485 411.24 604.314 507.547 508.007C587.692 427.861 656.663 347.771 707.293 277.951ZM50.3565 593.696C59.3008 609.954 69.4607 625.722 80.8364 640.866C88.7948 626.379 98.267 610.787 109.128 594.283C98.6671 578.523 89.6184 562.102 81.9816 545.199C76.8738 552.546 71.9891 559.762 67.3367 566.833C61.3599 575.916 55.6841 584.884 50.3565 593.696ZM95.5418 526.107C146.183 456.245 215.202 376.087 295.415 295.875C375.847 215.443 456.223 146.266 526.219 95.5872C543.479 102.655 560.261 111.247 576.359 121.362C504.701 170.799 418.182 243.819 330.77 331.23C243.59 418.41 170.725 504.703 121.295 576.251C111.187 560.15 102.603 543.367 95.5418 526.107ZM594.402 109.206C610.928 98.3505 626.533 88.8916 641.026 80.9561C625.882 69.5687 610.114 59.3977 593.855 50.443C584.844 55.8785 575.669 61.6797 566.373 67.7963C559.489 72.3257 552.468 77.0753 545.322 82.0365C562.224 89.681 578.644 98.7377 594.402 109.206ZM613.879 38.828C630.006 48.3225 645.635 58.986 660.644 70.8187C701.443 51.1002 731.113 46.0327 744.251 59.1707C757.415 72.3346 752.302 102.096 732.486 143.019C744.269 158.121 754.876 173.842 764.306 190.06C776.237 168.639 785.753 148.383 792.114 129.91C797.506 114.249 801.606 97.1335 801.537 80.183C801.468 63.0249 796.942 41.1505 779.606 23.8153C762.271 6.4802 740.397 1.95366 723.239 1.88429C706.288 1.81571 689.173 5.91522 673.512 11.3076C655.187 17.6174 635.109 27.0319 613.879 38.828Z" fill="url(#paint0_linear_301_345)"/>
<path fill-rule="evenodd" clip-rule="evenodd" d="M153.513 153.513C290.196 16.8291 511.804 16.8291 648.487 153.513C785.171 290.196 785.171 511.804 648.487 648.487C549.118 747.856 404.864 774.984 280.988 729.87C269.562 738.016 258.412 745.667 247.582 752.793C242.107 756.395 236.654 759.903 231.231 763.306C231.123 763.255 231.015 763.205 230.908 763.154C379.166 832.776 561.346 806.339 683.843 683.843C840.052 527.633 840.052 274.367 683.843 118.157C527.633 -38.0524 274.367 -38.0524 118.157 118.157C-38.0524 274.367 -38.0524 527.633 118.157 683.843C127.032 692.717 136.219 701.087 145.684 708.953C159.708 701.568 175.157 692.461 191.848 681.691C178.478 671.702 165.66 660.635 153.513 648.487C16.8291 511.804 16.8291 290.196 153.513 153.513Z" fill="url(#paint1_linear_301_345)"/>
<circle cx="774" cy="777" r="48" fill="#00FF77"/>
<defs>
<linearGradient id="paint0_linear_301_345" x1="401.481" y1="1.88344" x2="401.481" y2="801.998" gradientUnits="userSpaceOnUse">
<stop stop-color="#5500FF"/>
<stop offset="0.520833" stop-color="#FF8181"/>
<stop offset="1" stop-color="#DADA00"/>
</linearGradient>
<linearGradient id="paint1_linear_301_345" x1="118.157" y1="683.843" x2="683.843" y2="118.157" gradientUnits="userSpaceOnUse">
<stop stop-color="#060066"/>
<stop offset="0.499132" stop-color="#5500FF"/>
<stop offset="1" stop-color="#00FF77"/>
</linearGradient>
</defs>
</svg>
